<?xml version="1.0" encoding="UTF-8"?>
<svg id="Layer_1" data-name="Layer 1" xmlns="http://www.w3.org/2000/svg" viewBox="0 0 720 706.14">
  <defs>
    <style>
      .cls-1 {
        <!-- originally #000 -->
        fill: #433E47;
      }

      .cls-1, .cls-2 {
        stroke-width: 0px;
      }

      .cls-2 {
        fill: #fff;
      }
    </style>
  </defs>
  <path class="cls-1" d="M414.45,355.8l-61.16-2.42-39.29-1.56c-29-38-78-53-78-53-137-35-193.84,17-193.84,17l-26.16-62L0,162.56v-71.74l54,57,60,36,88,34,92,4,32,54c20.46,23.65,42.14,33.41,55.12,37.37,7.33,2.24,11.88,2.63,11.88,2.63,2.06,4.12,5.3,10.12,8.66,16.23-2.84,1.43-5.66,2.86-8.49,4.28-.07,1.61-.14,3.22-.21,4.83,7.03,4.79,14.06,9.58,21.49,14.64Z"/>
  <path class="cls-1" d="M442.5.82v96.8c-.96-.01-1.93-.01-2.89-.01-8.55,0-17.1-.01-25.65,0-17.73.03-19.96,1.77-13.87,18.28,7.13,19.29,16.17,37.96,25.69,56.21,2,3.83,10.18,7.11,14.69,6.27.67-.13,1.35-.3,2.03-.52v73.97h-59.3l3.52-3.75-119.6-83.95L389.02.82h53.48Z"/>
  <path class="cls-2" d="M705.89,340.13c-24.94-21.4-49.77-42.92-74.39-64.69-11.81-10.46-30.74-18.71-10.58-41.63-32.63-4.97-61.59-9.38-92.33-14.06,2.84-4.92,3.91-8.7,6.4-10.76,22.12-18.31,21.17-37.14,7.81-61.83-20.08-37.11-35.21-76.86-53.17-115.15-6.25-13.32-16.55-23.45-31.05-28.53-7.88-2.76-12.94-3.52-16.08-1.55-3.3,2.03-4.49,7.06-4.64,15.91-.25,15.14-.05,30.29-.05,47.6-30.5-13.21-50.67.02-62.96,23.25-12.48,23.61-20.49,49.64-29.6,74.91-1.02,2.84,2.52,9.85,5.62,11.27,33.4,15.29,58.29,39.98,79.98,68.87,2.47,3.29,7.12,6.12,11.65,7.45,1.61.48,3.2.77,4.68.83,25.19,1,50.43.82,75.65.69,15.17-.08,27.82,5.2,39.46,14.82,32.6,26.97,65.61,53.44,98.38,80.2,13.4,10.94,38.51,12.75,59.33.72-5.62-3.26-10.41-5.15-14.11-8.32ZM442.5,177.85c-.68.22-1.36.39-2.03.52-4.51.84-12.69-2.44-14.69-6.27-9.52-18.25-18.56-36.92-25.69-56.21-6.09-16.51-3.86-18.25,13.87-18.28,8.55-.01,17.1,0,25.65,0,.96,0,1.93,0,2.89.01,9.84.02,19.66.11,29.5-.04,6.98-.11,10.33,2.98,8.74,9.87-1.71,7.38-3.38,14.92-6.35,21.84-5.65,13.13-11.48,26.31-18.77,38.56-2.59,4.35-8.02,8.38-13.12,10ZM524.63,187.57c-16.96,9.5-34.25,18.43-51.43,27.53-.75-1.07-1.49-2.14-2.23-3.21,16.22-11.39,32.32-22.97,48.83-33.93,1.94-1.29,6.11.79,9.25,1.31-1.43,2.84-2.12,7.01-4.42,8.3Z"/>
  <path class="cls-2" d="M525.46,343.18c-.28-6.69-5.46-15.5-11.1-19.22-20.98-13.83-43.24-25.67-64.68-38.84-7.62-4.68-13.8-3.92-21.08.41-15.74,9.38-31.56,18.61-47.48,27.66-5.95,3.39-11.91,6.75-17.89,10.09-7.68,4.28-10.61,9.9-10.22,18.55.17,3.84.25,7.69.28,11.55.06,8.28-.14,16.57-.14,24.85h.05c0,5-.09,10.01-.15,15.02-.1,7.75-.12,15.51.41,23.22l.06.84c.38,5.09,2.98,12.18,6.87,14.5,10.41,6.18,20.9,12.22,31.47,18.13,14.13,7.91,28.38,15.58,42.73,23.07,2.04,1.06,4.99,1.29,7.91.94.67-.08,1.34-.2,2-.34,1.79-.38,3.49-.97,4.85-1.72,15.33-8.42,30.57-17.04,45.61-25.99,6.97-4.13,13.9-8.34,20.78-12.64,4.45-2.78,8.76-9.52,9-14.63.07-1.48.14-2.95.2-4.43l.72-19.93c.47-17.04.5-34.09-.2-51.09ZM393.17,336.33c2.83-1.42,5.65-2.85,8.49-4.28,10.84-5.46,21.93-11.04,34.14-17.19v55.49c-7.64-5.21-14.66-9.99-21.35-14.55-7.43-5.06-14.46-9.85-21.49-14.64.07-1.61.14-3.22.21-4.83Z"/>
  <path class="cls-2" d="M710.11,437.59c-.06,9.13-2.77,18.18-8.07,25.91-13.65,19.9-43.49,27.83-64.96,16.19-4.9-2.65-9.5-6.46-13.44-10.73-1.58-1.7-3.05-3.47-4.38-5.27-17.49-23.56-35.06-47.1-51.96-71.09-6.41-9.1-12.73-18.27-18.9-27.54-5.3-7.94-5.09-20.53-4.86-30.93.27-11.83-3.26-19.05-14.1-24.46-15.67-7.82-30.57-17.2-45.71-26.09-4.49-2.63-8.65-5.83-12.96-8.77.48-1.51.96-3.02,1.45-4.53,29.04.71,58.49-6.94,84.91,16.33,44.54,39.23,91.26,75.95,136.33,114.59,8.89,7.62,14.2,17.61,15.98,28.03.48,2.77.7,5.57.67,8.36Z"/>
  <path class="cls-2" d="M513.5,563.32l-18-105-.54-12.42-1.46-33.58s11.06-2.76,31.44,1.88l.72-19.93c-1.84.3-3.57.65-5.16,1.05l-76,.27v78.02h0s-2,0-2,0v-78.02l-76-.27c-3.85-.96-8.48-1.63-13.45-2.07-.1,7.75-.12,15.51.41,23.22,25.85-7.7,40.04-4.15,40.04-4.15l-1.64,37.62-.36,8.38-18,105-49,105,49,31,69,6h2s69-6,69-6l49-31-49-105Z"/>
</svg>